# xmcd CD database file
#
# Track frame offsets:
#	150
#	20200
#	39811
#	53681
#	69384
#	87246
#
# Disc length: 1328 seconds
#
# Revision: 0
# Processed by: cddbd v1.5.2PL0 Copyright (c) Steve Scherf et al.
# Submitted via: CDex 1.51
#
DISCID=43052e06
DTITLE=Denise Brooks - Pioneers And Poets
DYEAR=1900
DGENRE=Country
TTITLE0=Denise Brooks - Through The Hard Times
TTITLE1=Denise Brooks - Our Women Poineers
TTITLE2=Denise Brooks - Through The Eyes Of A Poet
TTITLE3=Denise Brooks - A Scene From Long Ago
TTITLE4=Denise Brooks - The Vanishing Breed
TTITLE5=Denise Brooks - One Of Kidman's Men
EXTD=
EXTT0=
EXTT1=
EXTT2=
EXTT3=
EXTT4=
EXTT5=
PLAYORDER=
